<?xml version="1.0" standalone="no"?>
<!DOCTYPE svg PUBLIC "-//W3C//DTD SVG 20010904//EN"
 "http://www.w3.org/TR/2001/REC-SVG-20010904/DTD/svg10.dtd">
<svg version="1.0" xmlns="http://www.w3.org/2000/svg"
 width="512.000000pt" height="512.000000pt" viewBox="0 0 512.000000 512.000000"
 preserveAspectRatio="xMidYMid meet">

<g transform="translate(0.000000,512.000000) scale(0.100000,-0.100000)"
fill="#000000" stroke="none">
<path d="M595 5109 c-151 -22 -270 -84 -386 -199 -69 -68 -94 -102 -127 -170
-84 -171 -77 29 -77 -2180 0 -2210 -7 -2010 77 -2180 34 -67 60 -103 128 -170
96 -97 177 -145 305 -182 l80 -23 1965 0 1965 0 80 23 c235 67 420 252 487
487 l23 80 0 1965 0 1965 -23 80 c-36 124 -86 209 -177 301 -91 92 -178 145
-300 184 l-80 25 -1940 1 c-1071 1 -1967 -2 -2000 -7z m2106 -1639 c63 -12 96
-34 124 -81 19 -32 20 -53 20 -374 0 -381 2 -397 61 -403 28 -3 39 5 93 65 34
37 91 109 126 158 65 90 192 328 235 440 33 84 55 113 98 125 50 14 557 13
622 -1 90 -19 102 -79 42 -212 -41 -89 -82 -151 -268 -403 -164 -222 -214
-301 -214 -336 0 -35 22 -62 190 -233 229 -234 330 -372 330 -452 0 -49 -22
-80 -74 -104 -36 -17 -68 -19 -291 -19 -274 0 -335 8 -410 56 -22 15 -114 102
-205 194 -127 130 -172 170 -198 175 -71 14 -96 -31 -131 -234 -31 -177 -47
-186 -300 -178 -188 6 -280 24 -421 84 -110 46 -254 142 -354 235 -201 185
-449 559 -665 1003 -161 328 -174 372 -130 416 20 20 29 20 297 17 365 -4 318
25 461 -282 91 -194 258 -447 331 -501 99 -73 130 5 130 333 0 118 -5 222 -11
248 -15 58 -54 99 -110 115 -61 17 -76 32 -61 63 14 31 68 72 112 84 46 13
503 15 571 2z"/>
</g>
</svg>
